<svg xmlns="http://www.w3.org/2000/svg" viewBox="0 0 1280 720" width="1280" height="720">
	<style>
		tspan { white-space:pre }
	</style>
	<path id="Text layer 1" fill="#ffffff" d="M80.38 424.92C85.97 430.3 93.46 432.98 102.86 432.98C111.92 432.98 119.12 430.57 124.45 425.75C129.78 420.92 132.45 414.4 132.45 406.19L132.45 405.68L123.43 405.68L123.43 406.19C123.43 411.86 121.61 416.33 117.97 419.59C114.33 422.85 109.34 424.48 102.99 424.48C88.51 424.48 81.27 416.31 81.27 399.96L81.27 377.1C81.27 368.04 83.11 361.53 86.79 357.55C90.48 353.57 95.83 351.58 102.86 351.58C109.21 351.58 114.23 353.23 117.91 356.53C121.59 359.83 123.43 364.32 123.43 369.99L123.43 370.37L132.71 370.37L132.71 369.99C132.71 364.66 131.48 359.96 129.02 355.9C126.57 351.83 123.07 348.7 118.54 346.5C114.02 344.3 108.79 343.2 102.86 343.2C93.46 343.2 85.97 345.88 80.38 351.26C74.79 356.64 72 365.12 72 376.72L72 399.46C72 411.06 74.79 419.54 80.38 424.92ZM157.22 401.49L197.48 401.49L197.48 393.87C197.48 384.64 195.25 377.8 190.81 373.36C186.36 368.91 180.46 366.69 173.09 366.69C165.73 366.69 159.8 368.91 155.31 373.36C150.82 377.8 148.58 384.64 148.58 393.87L148.58 405.04C148.58 414.53 150.82 421.51 155.31 426C159.8 430.49 165.81 432.73 173.35 432.73C180.71 432.73 186.49 430.91 190.68 427.27C194.87 423.63 196.97 418.8 196.97 412.79L196.97 412.16L188.59 412.16L188.59 412.54C188.59 416.43 187.29 419.48 184.71 421.68C182.13 423.88 178.55 424.98 173.98 424.98C168.73 424.98 164.62 423.52 161.66 420.6C158.7 417.68 157.22 412.58 157.22 405.3ZM161.53 378.82C164.41 375.98 168.26 374.56 173.09 374.56C178 374.56 181.85 375.92 184.65 378.63C187.44 381.34 188.84 386.04 188.84 392.73L188.84 395.01L157.22 395.01L157.22 393.61C157.22 386.59 158.66 381.66 161.53 378.82ZM176.14 343.45L163.57 359.32L171.57 359.32L186.81 343.45ZM215.51 367.58L215.51 431.97L224.15 431.97L224.15 367.58ZM215.26 345.61L215.26 357.04L224.4 357.04L224.4 345.61ZM244.21 367.58L244.21 431.97L252.85 431.97L252.85 390.95C252.85 385.7 254.22 381.66 256.97 378.82C259.73 375.98 263.39 374.56 267.96 374.56C272.62 374.56 276.24 375.96 278.82 378.76C281.4 381.55 282.69 385.61 282.69 390.95L282.69 431.97L291.46 431.97L291.46 390.57C291.46 385.57 292.79 381.66 295.46 378.82C298.12 375.98 301.83 374.56 306.57 374.56C311.23 374.56 314.85 375.96 317.43 378.76C320.01 381.55 321.3 385.61 321.3 390.95L321.3 431.97L329.94 431.97L329.94 389.68C329.94 382.48 328.03 376.87 324.22 372.85C320.41 368.83 315.08 366.82 308.22 366.82C299.41 366.82 292.9 370.42 288.66 377.61C286.97 374.14 284.56 371.47 281.42 369.61C278.29 367.75 274.52 366.82 270.12 366.82C266.39 366.82 263.03 367.56 260.02 369.04C257.02 370.52 254.58 372.66 252.72 375.45L252.72 367.58ZM386.45 352.72L430.39 352.72L430.39 344.34L377.18 344.34L377.18 431.97L430.39 431.97L430.39 423.59L386.45 423.59L386.45 391.58L424.04 391.58L424.04 383.2L386.45 383.2ZM447.03 367.58L447.03 431.97L455.67 431.97L455.67 367.58ZM446.78 345.61L446.78 357.04L455.92 357.04L455.92 345.61ZM479.8 427.65C482.51 430.53 486.44 431.97 491.61 431.97L497.7 431.97L497.7 424.09L492.5 424.09C489.62 424.09 487.54 423.33 486.27 421.81C485 420.28 484.37 417.87 484.37 414.57L484.37 344.34L475.73 344.34L475.73 415.08C475.73 420.58 477.09 424.77 479.8 427.65ZM517.01 401.49L557.27 401.49L557.27 393.87C557.27 384.64 555.04 377.8 550.6 373.36C546.15 368.91 540.25 366.69 532.88 366.69C525.52 366.69 519.59 368.91 515.1 373.36C510.61 377.8 508.37 384.64 508.37 393.87L508.37 405.04C508.37 414.53 510.61 421.51 515.1 426C519.59 430.49 525.6 432.73 533.14 432.73C540.5 432.73 546.28 430.91 550.47 427.27C554.66 423.63 556.76 418.8 556.76 412.79L556.76 412.16L548.38 412.16L548.38 412.54C548.38 416.43 547.09 419.48 544.5 421.68C541.92 423.88 538.34 424.98 533.77 424.98C528.52 424.98 524.42 423.52 521.45 420.6C518.49 417.68 517.01 412.58 517.01 405.3ZM521.32 378.82C524.2 375.98 528.06 374.56 532.88 374.56C537.79 374.56 541.65 375.92 544.44 378.63C547.23 381.34 548.63 386.04 548.63 392.73L548.63 395.01L517.01 395.01L517.01 393.61C517.01 386.59 518.45 381.66 521.33 378.82ZM654.17 351.13C649.26 346.6 642.53 344.34 633.97 344.34L602.48 344.34L602.48 431.97L611.75 431.97L611.75 395.77L633.97 395.77C642.44 395.77 649.15 393.53 654.1 389.04C659.06 384.55 661.53 378.37 661.53 370.5C661.53 362.12 659.08 355.66 654.17 351.13ZM647.31 383.2C644.01 385.99 639.31 387.39 633.21 387.39L611.75 387.39L611.75 352.72L633.21 352.72C639.31 352.72 644.01 354.18 647.31 357.1C650.61 360.02 652.26 364.49 652.26 370.5C652.26 376.17 650.61 380.41 647.31 383.2ZM675.12 367.58L675.12 431.97L683.76 431.97L683.76 391.2C683.76 386.29 685.13 382.31 687.89 379.26C690.64 376.22 694.21 374.69 698.62 374.69C700.99 374.69 703.19 375.03 705.22 375.71L705.22 367.07C703.7 366.82 702.13 366.69 700.52 366.69C696.88 366.69 693.6 367.47 690.68 369.04C687.76 370.61 685.41 373 683.63 376.22L683.63 367.58ZM722.62 426.44C727.11 430.64 733.12 432.73 740.65 432.73C748.02 432.73 753.93 430.61 758.37 426.38C762.82 422.15 765.04 415.46 765.04 406.31L765.04 393.11C765.04 383.96 762.82 377.27 758.37 373.04C753.93 368.81 748.02 366.69 740.65 366.69C733.12 366.69 727.11 368.81 722.62 373.04C718.13 377.27 715.89 383.96 715.89 393.11L715.89 406.31C715.89 415.54 718.13 422.25 722.62 426.44ZM752.15 420.73C749.31 423.57 745.48 424.98 740.65 424.98C735.66 424.98 731.72 423.57 728.84 420.73C725.96 417.89 724.53 412.92 724.53 405.81L724.53 393.61C724.53 386.59 725.96 381.66 728.84 378.82C731.72 375.98 735.66 374.56 740.65 374.56C745.48 374.56 749.31 375.98 752.15 378.82C754.98 381.66 756.4 386.59 756.4 393.61L756.4 405.81C756.4 412.92 754.98 417.89 752.15 420.73ZM786.12 426.32C790.18 430.59 795.39 432.73 801.74 432.73C805.81 432.73 809.3 431.95 812.22 430.38C815.14 428.81 817.45 426.51 819.14 423.46L819.14 431.97L827.9 431.97L827.9 344.34L819.14 344.34L819.14 376.6C815.41 369.99 809.66 366.69 801.87 366.69C795.43 366.69 790.18 368.83 786.12 373.1C782.06 377.38 780.02 384.05 780.02 393.11L780.02 406.32C780.02 415.37 782.06 422.04 786.12 426.32ZM815.08 419.65C812.37 423.21 808.34 424.98 803.01 424.98C793.53 424.98 788.79 418.59 788.79 405.81L788.79 393.61C788.79 380.91 793.7 374.56 803.52 374.56C808.68 374.56 812.58 376.36 815.2 379.96C817.83 383.56 819.14 388.37 819.14 394.38L819.14 405.68C819.14 411.44 817.79 416.09 815.08 419.65ZM852.86 426.44C856.8 430.64 862.66 432.73 870.45 432.73C878.41 432.73 884.36 430.64 888.29 426.44C892.23 422.25 894.2 416.22 894.2 408.35L894.2 367.58L885.56 367.58L885.56 407.2C885.56 413.3 884.42 417.79 882.13 420.67C879.85 423.54 875.99 424.98 870.58 424.98C865.16 424.98 861.3 423.5 859.02 420.54C856.73 417.58 855.59 413.13 855.59 407.2L855.59 367.58L846.95 367.58L846.95 408.35C846.95 416.22 848.92 422.25 852.86 426.44ZM918.01 426.44C922.54 430.64 928.66 432.73 936.36 432.73C943.56 432.73 949.32 430.78 953.63 426.89C957.95 422.99 960.11 417.79 960.11 411.27L960.11 410.76L951.73 410.76L951.73 411.39C951.73 415.71 950.37 419.06 947.66 421.43C944.96 423.8 941.23 424.98 936.49 424.98C931.24 424.98 927.15 423.57 924.23 420.73C921.31 417.89 919.85 412.92 919.85 405.81L919.85 393.61C919.85 386.59 921.33 381.66 924.3 378.82C927.26 375.98 931.37 374.56 936.62 374.56C941.27 374.56 944.96 375.75 947.66 378.12C950.37 380.49 951.73 383.84 951.73 388.15L951.73 388.79L960.11 388.79L960.11 388.15C960.11 381.63 957.97 376.43 953.7 372.53C949.42 368.64 943.6 366.69 936.23 366.69C928.61 366.69 922.54 368.81 918.01 373.04C913.48 377.27 911.22 383.96 911.22 393.11L911.22 406.31C911.22 415.54 913.48 422.25 918.01 426.44ZM990.72 374.44L1005.2 374.44L1005.2 367.58L990.72 367.58L990.72 348.78L981.95 352.85L981.95 367.58L971.92 367.58L971.92 374.44L981.95 374.44L981.95 415.97C981.95 420.96 983.33 424.88 986.08 427.71C988.83 430.55 992.66 431.97 997.58 431.97L1004.05 431.97L1004.05 424.35L998.97 424.35C993.47 424.35 990.72 421.43 990.72 415.59ZM1021.32 367.58L1021.32 431.97L1029.96 431.97L1029.96 367.58ZM1021.07 345.61L1021.07 357.04L1030.21 357.04L1030.21 345.61ZM1054.73 426.44C1059.21 430.64 1065.22 432.73 1072.76 432.73C1080.13 432.73 1086.03 430.61 1090.48 426.38C1094.92 422.15 1097.14 415.46 1097.14 406.31L1097.14 393.11C1097.14 383.96 1094.92 377.27 1090.48 373.04C1086.03 368.81 1080.13 366.69 1072.76 366.69C1065.22 366.69 1059.21 368.81 1054.73 373.04C1050.24 377.27 1047.99 383.96 1047.99 393.11L1047.99 406.31C1047.99 415.54 1050.24 422.25 1054.73 426.44ZM1084.25 420.73C1081.42 423.57 1077.59 424.98 1072.76 424.98C1067.76 424.98 1063.83 423.57 1060.95 420.73C1058.07 417.89 1056.63 412.92 1056.63 405.81L1056.63 393.61C1056.63 386.59 1058.07 381.66 1060.95 378.82C1063.83 375.98 1067.76 374.56 1072.76 374.56C1077.59 374.56 1081.42 375.98 1084.25 378.82C1087.09 381.66 1088.51 386.59 1088.51 393.61L1088.51 405.81C1088.51 412.92 1087.09 417.89 1084.25 420.73ZM1114.16 367.58L1114.16 431.97L1122.8 431.97L1122.8 390.95C1122.8 385.7 1124.17 381.66 1126.92 378.82C1129.68 375.98 1133.34 374.56 1137.91 374.56C1142.57 374.56 1146.21 375.96 1148.83 378.76C1151.46 381.55 1152.77 385.61 1152.77 390.95L1152.77 431.97L1161.41 431.97L1161.41 389.68C1161.41 382.48 1159.56 376.87 1155.88 372.85C1152.2 368.83 1146.93 366.82 1140.07 366.82C1136.34 366.82 1132.98 367.54 1129.97 368.98C1126.97 370.42 1124.53 372.57 1122.67 375.45L1122.67 367.58ZM1183.25 427.65C1187.48 431.04 1193.11 432.73 1200.14 432.73C1207.51 432.73 1213.39 431.06 1217.79 427.71C1222.2 424.37 1224.4 419.65 1224.4 413.55C1224.4 408.47 1222.89 404.6 1219.89 401.93C1216.88 399.27 1212.21 397.34 1205.86 396.15L1197.47 394.63C1193.58 393.95 1190.74 392.83 1188.96 391.26C1187.19 389.7 1186.3 387.52 1186.3 384.72C1186.3 381.34 1187.55 378.67 1190.04 376.72C1192.54 374.78 1196.03 373.8 1200.52 373.8C1205.09 373.8 1208.69 374.78 1211.32 376.72C1213.94 378.67 1215.25 381.34 1215.25 384.72L1215.25 385.11L1223.64 385.11L1223.64 384.34C1223.64 379.09 1221.52 374.84 1217.29 371.58C1213.05 368.32 1207.38 366.69 1200.27 366.69C1193.66 366.69 1188.29 368.36 1184.14 371.71C1179.99 375.05 1177.92 379.52 1177.92 385.11C1177.92 390.1 1179.35 393.91 1182.23 396.54C1185.11 399.16 1189.68 401.02 1195.95 402.12L1203.95 403.52C1208.18 404.28 1211.25 405.43 1213.16 406.95C1215.06 408.47 1216.02 410.84 1216.02 414.06C1216.02 417.7 1214.64 420.5 1211.89 422.44C1209.14 424.39 1205.35 425.36 1200.52 425.36C1195.86 425.36 1192.16 424.33 1189.41 422.25C1186.66 420.18 1185.28 417.36 1185.28 413.81L1185.28 413.43L1176.9 413.43L1176.9 413.93C1176.9 419.69 1179.02 424.26 1183.25 427.65Z" />
</svg>